<svg width="471" height="443" viewBox="0 0 471 443" fill="none" xmlns="http://www.w3.org/2000/svg">
<g clip-path="url(#clip0_8_2)">
<path d="M235.3 442.9C365.253 442.9 470.6 382.1 470.6 307.1C470.6 232.1 365.253 171.3 235.3 171.3C105.347 171.3 0 232.1 0 307.1C0 382.1 105.347 442.9 235.3 442.9Z" fill="#2A2F34"/>
<path d="M390.4 373.7C427.237 373.7 457.1 356.463 457.1 335.2C457.1 313.937 427.237 296.7 390.4 296.7C353.563 296.7 323.7 313.937 323.7 335.2C323.7 356.463 353.563 373.7 390.4 373.7Z" fill="#1F2629"/>
<path d="M221.5 355.9L146.2 312.5L232.3 262.8L307.6 306.2L221.5 355.9Z" fill="#1F2629"/>
<path d="M16.5 342.5L113.6 398.6L195 351.5L97.9 295.5L16.5 342.5Z" fill="#1F2629"/>
<path d="M160.1 78.9V73.4C160.1 72.9 159.7 72.3 159 71.9L125.7 52.8C124.3 52 122 52 120.6 52.8L24.7999 107.8C24.0999 108.2 23.7 108.7 23.7 109.3V114.8C23.7 115.3 24.0999 115.9 24.7999 116.3L58.0999 135.4C59.5 136.2 61.7999 136.2 63.2 135.4L159 80.4C159.7 80 160 79.5 160.1 78.9Z" fill="#526771"/>
<path d="M24.7 110.7L58 129.8C59.4 130.6 61.7 130.6 63.1 129.8L158.9 74.8C160.3 74 160.3 72.7 158.9 71.9L125.6 52.8C124.2 52 121.9 52 120.5 52.8L24.7 107.8C23.3 108.6 23.3 109.9 24.7 110.7Z" fill="#455A64"/>
<path d="M60.6 130.5V136C59.7 136 58.8 135.8 58 135.4L24.7 116.3C24 115.9 23.6 115.3 23.6 114.8V109.3C23.6 109.1 23.7 108.9 23.8 108.7C23.4 109.4 23.7 110.2 24.7 110.8L58 129.9C58.8 130.3 59.7 130.5 60.6 130.5Z" fill="#3E515A"/>
<path d="M78.5 83.8L106.7 99.9L153.4 73.2L125.2 57.1L78.5 83.8Z" fill="#3E515A"/>
<path d="M107.1 98.7L79.8 83.1C80.5 81.1 80.5 78.7 79.7 76L106.8 91.5C106.7 91.5 107.3 93.2 107.1 98.7Z" fill="white"/>
<path d="M105.4 89.3C106.8 90.1 108 92.1 108 93.8V99C108 100.7 106.8 101.3 105.4 100.5L78.5 85.1V83.8L105 98.9C105.9 99.4 106.6 99 106.6 98V93.1C106.6 92.1 105.9 90.9 105 90.4L78.5 75.4V73.9L105.4 89.3Z" fill="#2C393F"/>
<path d="M78.5 73.9L125.1 47.1L152 62.5C153.4 63.3 154.6 65.3 154.6 67V72.3C154.6 73.1 154.3 73.7 153.8 74L107.2 100.8C107.7 100.5 108 99.9 108 99.1V93.8C108 92.1 106.8 90.1 105.4 89.3L78.5 73.9Z" fill="#455A64"/>
<path d="M107.2 91.2C107.7 92 108 92.9 108 93.8V99.1C108 99.9 107.7 100.5 107.2 100.8L153.8 74C154.3 73.7 154.6 73.1 154.6 72.3V67C154.6 66.2 154.3 65.3 153.8 64.4L107.2 91.2Z" fill="#526771"/>
<path d="M49.8 43.8L49.5 47.4L81.1 64.3L81.8 62.2L49.8 43.8Z" fill="#2C393F"/>
<path d="M81.4 63L50.8 45.4L45.5 48.5L76.6 66.7L81.4 63Z" fill="white"/>
<path d="M70.9 64.8L67.9 100.2C67.9 100.9 68.4 101.8 69 102.2L86.7 112.5C87 112.6 87.3 112.7 87.6 112.8L76.6 68C76.3 68 75.9 67.9 75.7 67.7L74.4 67L70.9 64.8Z" fill="#3E515A"/>
<path d="M78 67.6L81.2 64.9L83.5 62.9C83.7 62.5 84 62.2 83.9 61.9L94.8 106.4C95 106.7 95 107.4 94.6 107.7L89.1 112.4C88.7 112.6 88.2 112.7 87.8 112.7L76.8 67.9C77.1 67.9 77.6 67.8 78 67.6Z" fill="#526771"/>
<path d="M83.5 61.6C84.1 62 84 62.4 83.5 62.9L78 67.6C77.4 68 76.4 68 75.7 67.6L70.9 64.8C70.3 64.4 70.2 63.9 70.7 63.6C71.2 63.3 72.1 63.4 72.7 63.7L76.5 65.9C76.7 66 77 66 77.3 65.9L81.3 62.4C81.5 62.3 81.5 62.1 81.3 62L49.8 43.8L51.3 42.9L83.5 61.6Z" fill="#455A64"/>
<path d="M40.7 45.5L70.6999 62.8V120L40.7 102.6V45.5Z" fill="#2C393F"/>
<path d="M69.8 63.8L40.7 47.1C39.2 48.8 37 50 34.1 50.7L62.9 67.3C62.9 67.4 64.7 66.9 69.8 63.8Z" fill="white"/>
<path d="M60.1 67.3C61.6 68.2 64.1 68.2 65.7 67.3L70.6 64.5C72.1 63.6 72.1 62.2 70.6 61.3L41.9 44.8L40.7 45.5L68.9 61.8C69.8 62.3 69.8 63.2 68.9 63.7L64.4 66.3C63.5 66.8 62 66.8 61 66.3L32.8 50L31.4 50.8L60.1 67.3Z" fill="#455A64"/>
<path d="M31.4 50.8V107.9L60 124.3C61.5 125.2 64 125.2 65.6 124.3L70.5 121.5C71.3 121.1 71.7 120.5 71.7 119.9V62.8C71.7 63.4 71.3 64 70.5 64.4L65.6 67.2C64.1 68.1 61.6 68.1 60 67.2L31.4 50.8Z" fill="#2C393F"/>
<path d="M62.9 67.9C63.9 67.9 64.9 67.7 65.7 67.2L70.6 64.4C71.4 64 71.8 63.4 71.8 62.8V120C71.8 120.6 71.4 121.2 70.6 121.6L65.7 124.4C64.9 124.8 63.9 125.1 62.9 125.1V67.9Z" fill="#526771"/>
<path d="M304.6 275.3C303.9 263.3 298.6 239.3 305.6 217.2C309.2 205.9 317.3 194 329.5 190.7C333.8 189.5 339.1 189.7 341.2 194.6C341.6 195.4 341.8 196.3 341.8 197.2C342.1 200.9 340.4 204.2 338.5 207.3C334.2 214.3 328.7 220.4 324.4 227.4C322.1 231.1 320.1 234.9 318.4 238.9" stroke="#27DEBF" stroke-width="0.8828" stroke-miterlimit="10"/>
<path d="M304.3 283.1C304.3 284.5 304.7 286.3 304.4 287.7C304.3 288.1 304.2 288.6 304.4 289C304.6 289.4 305.1 289.6 305.4 289.3C305.6 289.1 305.9 287.5 306 287.2C306.3 286.4 306.8 285.6 307.2 284.8C308 283.2 308.8 281.6 309.7 280C311.6 276.8 313.6 273.7 315.9 270.7C320.4 264.9 325.6 259.7 331.4 255.2C337.7 250.4 344.7 246.4 350.8 241.4C352.6 239.9 354.4 238.3 355.2 236C356.4 232.7 354.8 228.8 352.1 226.7C349.4 224.5 345.7 223.8 342.2 224.1C338.9 224.3 334.4 225.8 330.7 227.8C323.2 231.9 318 238.2 313.9 245.4C308.4 255 305.2 265.9 304.4 276.9C304.3 279 304.3 281 304.3 283.1Z" stroke="#27DEBF" stroke-width="0.8828" stroke-miterlimit="10"/>
<path d="M347.2 230.1C333 234.2 311.9 250.5 304.3 280.9" stroke="#27DEBF" stroke-width="0.8828" stroke-miterlimit="10" stroke-linecap="round" stroke-linejoin="round"/>
<path d="M332.6 197.1C324.9 203.2 306.6 222.6 304.3 253.9" stroke="#27DEBF" stroke-width="0.8828" stroke-miterlimit="10" stroke-linecap="round" stroke-linejoin="round"/>
<path d="M301.4 130.4L245.8 98.3C244.6 97.6 243.6 97.6 242.8 98C242.1 98.4 239.5 99.9 238.8 100.3C238 100.7 237.5 101.7 237.5 103.1V255.3C237.5 258 239.4 261.3 241.8 262.7L297.4 294.8C298.6 295.5 299.6 295.5 300.4 295.1C301.1 294.7 303.7 293.2 304.4 292.8C305.2 292.4 305.6 291.4 305.6 290V137.8C305.7 135.1 303.8 131.8 301.4 130.4Z" fill="#263238"/>
<path d="M249.6 257.9L245.6 260.2V272.9C245.6 273.6 246.1 274.4 246.7 274.8L248.6 275.9C249.2 276.2 250.1 276.2 250.7 275.9L252.6 274.8C253.2 274.5 253.8 273.7 254.1 273L257.7 262.6L249.6 257.9Z" fill="#263238"/>
<path d="M245.6 272.9C245.6 273.6 246.1 274.4 246.7 274.8L248.6 275.9C249.2 276.2 249.8 276 250.1 275.4L253.7 265L245.7 260.4L245.6 272.9Z" fill="#37474F"/>
<path d="M289.7 281L285.7 283.3V296C285.7 296.7 286.2 297.5 286.8 297.9L288.7 299C289.3 299.3 290.2 299.3 290.8 299L292.7 297.9C293.3 297.6 293.9 296.8 294.2 296.1L297.8 285.7L289.7 281Z" fill="#263238"/>
<path d="M285.7 296C285.7 296.7 286.2 297.5 286.8 297.9L288.7 299C289.3 299.3 289.9 299.1 290.2 298.5L293.8 288.1L285.8 283.5L285.7 296Z" fill="#37474F"/>
<path d="M242.1 100.7L297.7 132.8C300.1 134.2 302 137.5 302 140.2V292.4C302 293.8 301.5 294.7 300.7 295.2C299.9 295.6 298.9 295.6 297.7 294.9L242.1 262.8C239.7 261.4 237.8 258.1 237.8 255.4V103.2C237.8 101.8 238.3 100.9 239.1 100.4C239.9 100 240.9 100.1 242.1 100.7Z" fill="#37474F"/>
<path d="M161.4 308.8L221.5 343.5L305.7 294.9L301.7 292.6L241.6 257.9L161.4 304.2V308.8Z" fill="#455A64"/>
<path d="M221.5 343.5V338.9L305.7 290.3V294.9L221.5 343.5Z" fill="#263238"/>
<path d="M221.6 336.6C232.8 319.6 232.2 289.5 231.3 284.4C231.3 284.4 236 316.2 241.9 325.3" stroke="#A4A4A4" stroke-width="0.7403" stroke-miterlimit="10"/>
<path d="M233.2 295.9C235.1 305.2 257.1 311.7 257.1 311.7" stroke="#A4A4A4" stroke-width="0.7403" stroke-miterlimit="10"/>
<path d="M231.1 305.2C231.7 303.7 234.8 303.5 235.3 305.9C235.3 305.9 235.7 301.4 238.2 302.7" stroke="#A4A4A4" stroke-width="0.7403" stroke-miterlimit="10"/>
<path d="M230.2 311.8C231.3 309.4 235.5 308.1 237.3 313.8C237.3 313.8 237.6 303.5 244.4 306.6" stroke="#A4A4A4" stroke-width="0.7403" stroke-miterlimit="10"/>
<path d="M228.3 320.8C230.7 316.2 237.2 314.4 238.9 318.6C238.9 313.4 244.9 306.8 252.2 310" stroke="#A4A4A4" stroke-width="0.7403" stroke-miterlimit="10"/>
<path d="M224.2 331.9C227 326.8 233.8 317.7 239.8 321.4" stroke="#A4A4A4" stroke-width="0.7403" stroke-miterlimit="10"/>
<path d="M297.7 244V248.6L221.5 292.6L161.4 257.9V253.2L237.6 209.3L297.7 244Z" fill="#263238"/>
<path d="M297.7 244L221.5 288L161.4 253.2L237.6 209.3L297.7 244Z" fill="#455A64"/>
<path d="M297.7 193V197.7L221.5 241.7L161.4 206.9V202.3L237.6 158.3L297.7 193Z" fill="#263238"/>
<path d="M297.7 193L221.5 237L161.4 202.3L237.6 158.3L297.7 193Z" fill="#455A64"/>
<path d="M221.3 176.6L165.7 144.5C164.5 143.8 163.5 143.8 162.7 144.2C162 144.6 159.4 146.1 158.7 146.5C157.9 146.9 157.4 147.9 157.4 149.3V301.5C157.4 304.2 159.3 307.5 161.7 308.9L217.3 341C218.5 341.7 219.5 341.7 220.3 341.3C221 340.9 223.6 339.4 224.3 339C225.1 338.6 225.5 337.6 225.5 336.2V184C225.5 181.3 223.6 178 221.3 176.6Z" fill="#263238"/>
<path opacity="0.2" d="M221.5 200L225.5 197.7V183.8L221.5 186.1V200Z" fill="black"/>
<path opacity="0.2" d="M301.7 153.7L305.7 151.4V137.5L301.7 139.8V153.7Z" fill="black"/>
<path d="M169.4 304.2L165.4 306.5V319.2C165.4 319.9 165.9 320.7 166.5 321.1L168.4 322.2C169 322.5 169.9 322.5 170.5 322.2L172.4 321.1C173 320.8 173.6 320 173.9 319.3L177.5 308.9L169.4 304.2Z" fill="#263238"/>
<path d="M165.4 319.1C165.4 319.8 165.9 320.6 166.5 321L168.4 322.1C169 322.4 169.6 322.2 169.9 321.6L173.5 311.2L165.5 306.6L165.4 319.1Z" fill="#37474F"/>
<path d="M209.5 327.3L205.5 329.6V342.3C205.5 343 206 343.8 206.6 344.2L208.5 345.3C209.1 345.6 210 345.6 210.6 345.3L212.5 344.2C213.1 343.9 213.7 343.1 214 342.4L217.6 332L209.5 327.3Z" fill="#263238"/>
<path d="M205.5 342.2C205.5 342.9 206 343.7 206.6 344.1L208.5 345.2C209.1 345.5 209.7 345.3 210 344.7L213.6 334.3L205.6 329.7L205.5 342.2Z" fill="#37474F"/>
<path d="M161.6 146.9L217.2 179C219.6 180.4 221.5 183.7 221.5 186.4V338.6C221.5 340 221.5 343.6 221.5 343.6C221.5 343.6 218.4 341.8 217.2 341.1L161.6 309C159.2 307.6 157.3 304.3 157.3 301.6V149.4C157.3 148 157.8 147.1 158.6 146.6C159.4 146.2 160.5 146.2 161.6 146.9Z" fill="#37474F"/>
<path opacity="0.2" d="M217.2 179L161.6 146.9C160.4 146.2 159.4 146.2 158.6 146.6C157.8 147 157.3 148 157.3 149.4V163L221.5 200V186.4C221.5 183.6 219.6 180.3 217.2 179Z" fill="black"/>
<path d="M249.6 172.2L293.7 146.7V193" stroke="#A4A4A4" stroke-width="0.7403" stroke-miterlimit="10" stroke-linecap="round" stroke-linejoin="round"/>
<path d="M285.7 181.5L293.7 146.7L277.6 174.5" stroke="#A4A4A4" stroke-width="0.7403" stroke-miterlimit="10" stroke-linecap="round" stroke-linejoin="round"/>
<path d="M293.7 146.7L269.6 169.9" stroke="#A4A4A4" stroke-width="0.7403" stroke-miterlimit="10" stroke-linecap="round" stroke-linejoin="round"/>
<path d="M293.7 185.7C293.7 179.2 286.3 178.8 286.3 178.8C286.8 176.8 286.3 173.7 283.9 171.6C281.5 169.6 279.9 170.7 279.4 171.5C279.4 171.5 279.9 165.5 274.7 165C274.7 165 278.1 158.7 274.7 157.7" stroke="#A4A4A4" stroke-width="0.7403" stroke-miterlimit="10" stroke-linecap="round" stroke-linejoin="round"/>
<path d="M293.7 175.7C293.4 172.4 290.9 168.2 288.3 170.2C288.3 170.2 289 163 283.8 163.9C283.8 163.9 286.2 157.2 281.1 158.8C281.1 158.8 284.8 154.2 281.9 153.5" stroke="#A4A4A4" stroke-width="0.7403" stroke-miterlimit="10" stroke-linecap="round" stroke-linejoin="round"/>
<path d="M315.2 130.6C315.2 129.7 314.6 128.8 313.4 128.1L253.8 93.7C251.4 92.3 247.6 92.3 245.3 93.7L153.6 146.6C152.4 147.3 151.8 148.2 151.8 149.1C151.8 149.9 151.8 152.9 151.8 153.7C151.8 154.6 152.4 155.5 153.6 156.2L213.2 190.6C215.6 192 219.4 192 221.7 190.6L313.4 137.7C314.6 137 315.2 136.1 315.2 135.2C315.2 134.4 315.2 131.4 315.2 130.6Z" fill="#37474F"/>
<path d="M213.2 186L153.6 151.6C151.2 150.2 151.2 148 153.6 146.7L245.3 93.8C247.7 92.4 251.5 92.4 253.8 93.8L313.4 128.2C315.8 129.6 315.8 131.8 313.4 133.1L221.8 186C219.4 187.3 215.6 187.3 213.2 186Z" fill="#455A64"/>
<path opacity="0.1" d="M301.7 144.4L273.6 179.2L225.5 206.9V188.4L301.7 144.4Z" fill="black"/>
<path opacity="0.1" d="M297.7 197.7L273.6 230.1L225.5 257.9V239.3L297.7 197.7Z" fill="black"/>
<path opacity="0.1" d="M297.7 248.6L273.6 281L225.5 308.8V290.3L297.7 248.6Z" fill="black"/>
<path d="M187.3 349.8L113.6 392.3L30.5 344.3L104.3 301.7L187.3 349.8Z" fill="#27DEBF"/>
<path opacity="0.5" d="M187.3 349.8L113.6 392.3L30.5 344.3L104.3 301.7L187.3 349.8Z" fill="black"/>
<path d="M104.3 244V301.7L30.5 344.3V286.5L104.3 244Z" fill="#27DEBF"/>
<path opacity="0.23" d="M104.3 244V301.7L30.5 344.3V286.5L104.3 244Z" fill="black"/>
<path d="M113.6 334.6V392.3L30.5 344.3V286.5L113.6 334.6Z" fill="#27DEBF"/>
<path opacity="0.38" d="M113.6 334.6V392.3L30.5 344.3V286.5L113.6 334.6Z" fill="black"/>
<path d="M187.3 292V349.8L104.3 301.7V244L187.3 292Z" fill="#27DEBF"/>
<path opacity="0.4" d="M187.3 292V349.8L104.3 301.7V244L187.3 292Z" fill="black"/>
<path d="M187.3 349.8V292L113.6 334.6V392.3L187.3 349.8Z" fill="#27DEBF"/>
<path opacity="0.23" d="M187.3 349.8V292L113.6 334.6V392.3L187.3 349.8Z" fill="black"/>
<path d="M104.3 244L104.4 212L187.2 260.1L187.3 292L104.3 244Z" fill="#27DEBF"/>
<path opacity="0.2" d="M104.3 244L104.4 212L187.2 260.1L187.3 292L104.3 244Z" fill="black"/>
<path d="M113.6 334.6L120.5 306.7L193.6 264.5L187.3 292L113.6 334.6Z" fill="#27DEBF"/>
<path opacity="0.3" d="M113.6 334.6L120.5 306.7L193.6 264.5L187.3 292L113.6 334.6Z" fill="black"/>
<path d="M30.5 286.5L21.7 257.6L95.5 215L104.3 244L30.5 286.5Z" fill="#27DEBF"/>
<path opacity="0.1" d="M30.5 286.5L21.7 257.6L95.5 215L104.3 244L30.5 286.5Z" fill="black"/>
<path d="M30.5 286.5L13.2 262.6L96.2 310.6L113.6 334.6L30.5 286.5Z" fill="#27DEBF"/>
<path opacity="0.45" d="M30.5 286.5L13.2 262.6L96.2 310.6L113.6 334.6L30.5 286.5Z" fill="black"/>
<g opacity="0.7">
<g opacity="0.7">
<g opacity="0.7">
<path opacity="0.7" d="M135.3 375.2C135 375.2 134.8 375 134.8 374.7V364.5C134.8 364.3 135 364 135.3 364C135.6 364 135.8 364.2 135.8 364.5V374.7C135.7 375 135.5 375.2 135.3 375.2Z" fill="white"/>
</g>
<g opacity="0.7">
<path opacity="0.7" d="M134 368.1C133.9 368.1 133.9 368.1 133.8 368.1C133.6 368 133.5 367.7 133.6 367.5L135.2 363.8L137 365.9C137.2 366.1 137.1 366.4 137 366.5C136.8 366.7 136.5 366.6 136.4 366.5L135.5 365.5L134.5 367.9C134.3 368 134.1 368.1 134 368.1Z" fill="white"/>
</g>
</g>
<g opacity="0.7">
<g opacity="0.7">
<path opacity="0.7" d="M139.5 372.8C139.2 372.8 139 372.6 139 372.3V362.1C139 361.9 139.2 361.6 139.5 361.6C139.8 361.6 140 361.8 140 362.1V372.3C139.9 372.6 139.7 372.8 139.5 372.8Z" fill="white"/>
</g>
<g opacity="0.7">
<path opacity="0.7" d="M138.2 365.7C138.1 365.7 138.1 365.7 138 365.7C137.8 365.6 137.7 365.3 137.8 365.1L139.4 361.4L141.2 363.5C141.4 363.7 141.3 364 141.2 364.1C141 364.3 140.7 364.2 140.6 364.1L139.7 363.1L138.7 365.5C138.5 365.6 138.3 365.7 138.2 365.7Z" fill="white"/>
</g>
</g>
</g>
<g opacity="0.7">
<g opacity="0.7">
<path opacity="0.7" d="M123.2 382.1C123 382.1 122.9 382.1 122.7 382C122.4 381.8 122.2 381.4 122.2 380.9V379.7C122.2 379.5 122.4 379.2 122.7 379.2C123 379.2 123.2 379.4 123.2 379.7V380.9C123.2 381.1 123.3 381.2 123.3 381.2C123.3 381.2 123.4 381.2 123.6 381.1C124 380.9 124.4 380 124.4 379.1V373.9C124.4 373.7 124.6 373.4 124.9 373.4C125.2 373.4 125.4 373.6 125.4 373.9V379.1C125.4 380.3 124.8 381.5 124.1 381.9C123.7 382 123.4 382.1 123.2 382.1Z" fill="white"/>
</g>
<g opacity="0.7">
<path opacity="0.7" d="M118.4 377.9V377.1C118.4 373.4 121 368.9 124.2 367.1C125.8 366.2 127.4 366 128.6 366.7C129.8 367.4 130.5 368.8 130.5 370.7V371L118.4 377.9ZM126.9 367.1C126.2 367.1 125.4 367.3 124.6 367.8C121.9 369.4 119.6 373 119.3 376.2L129.5 370.3C129.4 368.9 129 367.8 128.1 367.3C127.8 367.2 127.4 367.1 126.9 367.1Z" fill="white"/>
</g>
</g>
<path opacity="0.7" d="M13.2 262.6L96.2 310.6L113.6 334.6L95.3 311.5L13.2 262.6Z" fill="white"/>
<path opacity="0.7" d="M187.3 292L113.6 334.6V392.3L114.9 335.8L187.3 292Z" fill="white"/>
<path d="M79.1 268.9C86.7 267.8 93.7 262.9 98.1 256.7C100.2 253.8 101.7 250.6 102.6 247.2C103.4 244.1 103.9 240.5 103.1 237.3C101.7 231.8 96.6 228.6 91.3 227.9C88.6 227.6 85.8 227.8 83.2 228.7C80.4 229.7 78.2 231.4 76.5 233.7C75.6 234.9 74.7 236.5 74.7 238C74.7 239.4 75.6 240.3 76.9 240.5C78.5 240.8 80.1 240.1 81.5 239.3C83.2 238.4 84.6 237.1 85.8 235.7C88.2 232.7 90.3 229 91.3 225.2C92.2 222 92 218.4 91.3 215.1C90.6 211.8 89.2 208.4 86.8 205.9C84.2 203.3 80.6 202.1 77.1 201.6C73.5 201.1 69.8 201.5 66.4 202.6C64.9 203.1 63.4 203.8 62.3 204.9C61.4 205.7 60.5 207 60.8 208.3C61.2 209.7 63 210.2 64.3 210C66.2 209.8 68 208.6 69.3 207.3C70.8 205.9 72.1 204.1 73.1 202.3C73.8 201 74.3 199.5 74.2 198C74.1 191.7 67.1 187.6 61.6 186.4C60.1 186.1 58.6 186 57.1 186.1C56.6 186.1 56.9 186.9 57.3 186.9C60.2 186.7 63.2 187.5 65.7 188.8C68.2 190 70.5 191.9 71.9 194.3C73.3 196.8 73.1 199.6 71.7 202C70.7 203.7 69.5 205.3 68.1 206.6C66.9 207.7 65.1 208.9 63.4 208.8C62.9 208.8 62.3 208.5 62.1 208C61.9 207.3 62.4 206.6 62.7 206.2C63.5 205.2 64.7 204.6 65.9 204.1C68.8 202.8 72.2 202.4 75.4 202.5C78.7 202.7 82.1 203.5 84.7 205.5C87.2 207.4 88.7 210.3 89.6 213.2C90.5 216.2 90.9 219.6 90.5 222.7C90.1 225.9 88.5 229 86.9 231.7C85 234.8 82.7 237.7 79.2 238.9C78.3 239.2 76.5 239.7 76.2 238.4C75.9 237.2 76.8 235.6 77.5 234.6C78.9 232.4 80.9 230.7 83.3 229.7C85.6 228.8 88.1 228.4 90.6 228.6C95.3 229 100.1 231.4 101.7 236.1C102.7 238.8 102.5 241.9 102 244.7C101.4 247.8 100.3 250.8 98.7 253.5C95.3 259.4 90 263.8 83.8 266.4C82.3 267 80.8 267.6 79.2 268.1C78.8 268.6 78.9 269 79.1 268.9Z" fill="#1F2629"/>
<path d="M47.3 182.1C43.2 181.8 37.8 185 39.7 187.3C41.7 189.6 46.9 185.9 46.9 185.9C46.9 185.9 46.4 190.6 48.1 191.1C49.8 191.6 52.1 187.2 50.4 184.4C50.4 184.4 53 185.5 55.4 183.8C57.8 182.1 55.3 180.3 51.8 180.6C51.8 180.6 54.2 172.6 49.3 174.1C46.9 174.8 46 177.7 47.3 182.1Z" fill="#27DEBF"/>
<path opacity="0.65" d="M47.3 182.1C43.2 181.8 37.8 185 39.7 187.3C41.7 189.6 46.9 185.9 46.9 185.9C46.9 185.9 46.4 190.6 48.1 191.1C49.8 191.6 52.1 187.2 50.4 184.4C50.4 184.4 53 185.5 55.4 183.8C57.8 182.1 55.3 180.3 51.8 180.6C51.8 180.6 54.2 172.6 49.3 174.1C46.9 174.8 46 177.7 47.3 182.1Z" fill="white"/>
<path d="M51 183.8C50.8 183.6 50.5 183.4 50.3 183.2C49.9 182.9 49.6 182.7 49.2 182.4C48.9 182.2 48.5 181.9 48.1 181.7C47.9 181.6 47.7 181.5 47.4 181.4C47.1 181.2 46.8 181.2 46.4 181.2C46 181.2 45.7 181.6 46 182C46.3 182.4 46.7 182.5 47.1 182.7C47.3 182.8 47.5 182.9 47.6 183C48 183.2 48.3 183.5 48.6 183.7C48.9 184 49.3 184.2 49.6 184.4C50.1 184.8 50.7 185.2 51.3 185.4C51.4 185.4 51.4 185.4 51.5 185.4C52.1 185.1 51.3 184.1 51 183.8Z" fill="#455A64"/>
<path d="M369.8 72.1C365.4 78 359.6 110.3 357.4 120.7C346.8 120.4 332.5 119.9 327.2 119.3C321.2 118.7 308.4 117.4 302.1 118.3C286.5 120.3 287.1 130.6 287.5 133.2C287.9 136.3 290.1 137.7 298.5 135.8C300.4 135.4 302.3 135.2 304.2 135.1C305 135.1 306.7 134.7 307.4 135.4C308.4 136.4 305.5 138.1 304.8 138.5C303.7 139.2 302.5 140.1 302.3 141.4C302.2 141.9 302.3 142.5 302.7 142.7C303.1 142.9 303.5 142.8 304 142.7C307.8 141.8 311.5 140.4 315 138.5C316.3 137.8 317.7 137 319.1 136.5C321.3 135.8 323.5 136.2 325.7 136.2C330.4 136.2 355.2 138.7 366.2 139.8C373.8 140.6 374.6 133 377.3 125.4C380.6 115.9 388.2 66.1 388.2 66.1C380.3 65.2 375 65.1 369.8 72.1Z" fill="#FFA8A7"/>
<path d="M388.2 65.5C384.5 64.8 376.2 63.8 371.7 68.8C367.2 73.8 366.1 79.2 364.1 86.8C362.1 94.4 358.6 108.2 358.6 108.2C358.6 108.2 364.4 116.6 382.7 114.2L388.2 65.5Z" fill="#37474F"/>
<path d="M434 330H421.2L417.5 302.1L433.7 301.5L434 330Z" fill="#FFA8A7"/>
<path d="M391.4 316C389.2 319.8 382.2 319.5 376.4 318.1L375.7 290.7L392.9 290L391.4 316Z" fill="#FFA8A7"/>
<path d="M433.1 154C433.6 165.8 432 235.9 432 235.9C432.4 239.3 435.9 245.2 436.7 257.5C437.8 275.3 434.1 313.3 434.1 313.3C434.1 313.3 426.8 317.1 418.8 314.2C418.8 314.2 410.7 259.2 407.8 241.6C405.3 226.3 402 185.3 402 185.3L395.7 237.9C395.7 237.9 397.5 246.2 397.1 256.8C396.8 265 392.2 304.7 392.2 304.7C392.2 304.7 384.4 307.6 375.8 305.1C375.8 305.1 372 243.5 371.5 236C371 227.5 371.3 152.3 371.3 152.3L433.1 154Z" fill="#27DEBF"/>
<path opacity="0.2" d="M402.1 185.3C402.1 185.3 390.9 182.1 383.3 175.3C383.3 175.3 386.9 181.4 397 186.8L396.4 232.7L402.1 185.3Z" fill="black"/>
<path d="M406.5 353.2C406.1 353.6 406.3 356.4 406.8 357.1C407.3 357.9 410.4 360.3 415.7 360.4C420.8 360.6 425.3 359.7 428.1 357.7C431 355.7 432.3 353.6 432.5 350.7C432.7 347.8 432.2 345 433.5 342.8C434.7 340.7 436.6 338.3 437 337.2C437.9 334.7 436.8 331.3 436.8 331.3L406.5 353.2Z" fill="#263238"/>
<path d="M419.4 327.5C419.4 328.6 419.3 329.6 418.9 330.7C418.3 333 417.2 335.1 416.1 337.2C415.5 338.3 414.9 339.3 414.1 340.3C412.6 342.2 410.8 343.7 409.3 345.6C407.7 347.4 406.5 349.6 406.4 351.9C406.3 355.9 410.7 357.1 414 357.5C417.6 358 421.3 357.7 424.7 356.5C428.5 355.3 431.2 352.2 431.6 348.3C431.7 347.2 431.6 346.1 431.7 345C431.9 342.5 433.1 340.1 434.5 337.9C435.3 336.6 436.2 335.4 436.7 334C437.6 331.5 436.7 328.8 435.9 326.4C435.2 324.3 434.5 321.9 433.8 322.2C433.8 323.3 433.8 323.4 433.1 324.2C432.1 325.2 432.2 326.6 431.1 327.5C431.5 326.2 431.6 325.6 431.7 324.7C431.8 324.4 431.6 323.8 431.4 323.6C431.1 323.3 430.6 323.1 430.2 323C428.6 322.5 427 322.2 425.3 322.1C423.8 322 422.1 321.9 420.6 322.3C420.1 322.4 419.7 322.7 419.4 323C419.1 323.4 419.1 323.7 419 324.4C419.2 324.8 419.3 326.5 419.4 327.5Z" fill="#455A64"/>
<path d="M415.5 338C416.9 336.8 420.2 336.7 422.1 336.8C424.4 337 426.2 337.7 427.3 338.4C427.8 338.7 428.4 338.6 428.8 338.2C429.3 337.7 429.2 336.9 428.6 336.5C427.5 335.7 425.4 334.7 422.7 334.6C418.2 334.5 417 335.3 417 335.3C417 335.3 415.1 336.7 415.5 338Z" fill="#FEFEFE"/>
<path d="M412.3 342.2C414.1 341 417.8 341 419.6 341.2C421.9 341.4 423.6 342.2 424.7 342.9C425.2 343.2 425.8 343.1 426.2 342.7C426.7 342.2 426.6 341.4 426 341C424.9 340.2 422.7 339 420 338.9C415.5 338.8 414.4 339.7 414.4 339.7C414.4 339.7 412.6 340.6 412.3 342.2Z" fill="#FEFEFE"/>
<path d="M424.4 330.4C421.3 330.2 420 330.6 418.8 331.1C418 331.6 417.6 332.8 418.1 333.1C419.1 332.5 420.8 332.2 423 332.2C424.5 332.2 426.3 332.7 427.9 333.3C428.3 333.5 428.7 333.7 429.2 333.9C429.7 334.2 430.4 333.9 430.6 333.4C430.8 332.9 430.6 332.4 430.2 332.1C429 331.5 426.9 330.5 424.4 330.4Z" fill="#FEFEFE"/>
<path d="M347.1 333.1C346.6 334 346.7 335.6 347.1 336.7C347.5 337.8 352.8 341.1 360.2 340.9C367.6 340.8 372.7 338 375.6 336.3C378.5 334.6 381.4 334.4 385.1 334.3C388.7 334.3 393.6 332.7 394.5 331C395.4 329.3 394.6 326.4 394.6 326.4L347.1 333.1Z" fill="#263238"/>
<path d="M377.8 311.6C377.6 311.5 377.4 311.5 377.2 311.5C376.9 311.4 376.6 311.3 376.2 311.4C375.8 311.5 375.5 311.7 375.3 312C374.5 312.8 373.9 313.9 373.3 314.9C371.6 317.3 368.3 319.3 364.7 321C362.2 322.2 359.8 323.1 357.3 324.1C354.7 325.1 351.3 325.7 349.3 326.9C346.3 328.7 345.7 333.6 348.9 335.6C351.7 337.4 359 339.5 366.9 337.7C371.2 336.7 376.1 332.4 381.8 332.2C385.4 332.1 392.1 331.4 394.5 328.8C395.4 327.6 394.5 323.8 393.7 320.5C392.9 316.9 393.2 311.5 391.6 311.5L391.5 313.3C391.3 313.8 390.1 314.4 389.7 314.8C389.2 315.3 388.7 315.8 388.3 316.3C387.7 317 387 317.6 386.2 318C384.8 318.6 383.1 318.3 381.6 317.9C381.5 317.9 382.4 315.1 382.5 314.8C382.6 314.6 382.6 314.3 382.6 314.1C382.5 313.9 382.4 313.7 382.2 313.6C380.7 312.5 379.3 312 377.8 311.6Z" fill="#455A64"/>
<path d="M368.1 319.1C368.1 319.1 368.7 317.8 370.8 317.5C372.4 317.3 375.2 318.6 376.9 320.1C377.6 320.7 377.4 321.9 376.6 322.3C376.1 322.5 375.5 322.4 375.1 322.1C374 321 371.5 319 368.1 319.1Z" fill="#FEFEFE"/>
<path d="M363 321.7C363 321.7 364.1 320.1 366.2 320.2C366.2 320.2 370.4 320.5 372.9 323.1C373.5 323.8 373.4 324.8 372.6 325.2C372.1 325.4 371.5 325.3 371.2 325C370 323.9 367.7 321.5 363 321.7Z" fill="#FEFEFE"/>
<path d="M357.3 323.9C357.3 323.9 358.5 322.5 360.6 322.6C360.6 322.6 364.5 322.9 367 325.5C367.6 326.2 367.5 327.2 366.7 327.6C366.2 327.8 365.6 327.7 365.3 327.4C364.2 326.3 362.1 323.8 357.3 323.9Z" fill="#FEFEFE"/>
<path d="M409.6 65.8C414.3 66.3 419.9 66.6 424.4 67.2C430.2 68 434.7 74 436.2 83.3C437.8 93.5 431.2 122.9 431.2 122.9L433.3 157.5C424.8 163.8 388.5 167.1 370.5 154C370.5 154 370.9 95.1 372.3 86C374.2 73.6 377.3 65.8 391.3 64.9L409.6 65.8Z" fill="#455A64"/>
<path d="M441.8 140.8C440.3 143.4 438.7 145.9 437.2 148.4C436.6 149.3 436 150.3 435.4 151.2C435.2 151.5 434.6 152.2 434.2 152.4C433.4 152.9 431.9 152.6 430.9 152.6C426.4 152.7 421.9 153.1 417.4 153.6C416.7 153.7 415.8 153.8 415.4 154.5C414.9 155.2 415.3 156.2 416 156.7C416.7 157.2 417.6 157.3 418.4 157.4C419.7 157.6 421 157.7 422.3 157.9C422.8 158 423.4 158 423.9 158.4C425.3 159.6 422.6 160.9 421.8 161.5C420.2 162.6 418.4 163.6 416.6 164.4C408.5 167.8 407.5 170.3 409 173.1C410.3 175.6 415.9 184.5 430.2 176.8C435.9 173.7 444.7 163.9 448.7 159.2C454.4 152.4 464.2 137.2 464.2 137.2C469.7 129.6 470.4 126.5 470.6 123.4C470.7 120.2 453.6 96 447.8 87.5C442 79 439.2 68.6 424.4 67.2C424.4 67.2 418.8 85.1 428.1 96.7L449.7 126.8C449.6 126.7 443.9 137.2 441.8 140.8Z" fill="#FFA8A7"/>
<path d="M457.5 99C454.7 95 451.8 90.9 449.1 86.8C437.4 69.7 438.3 66.5 421.4 66.3C419.9 68.6 419 78.5 421.3 88.4C423.2 96.8 430.3 102.6 430.3 102.6L438.8 114.1C438.8 114.1 444 113.9 450.2 109.4C456.3 104.9 457.5 99 457.5 99Z" fill="#37474F"/>
<path d="M420.7 20.7C417.5 16.2 412.9 17 412.9 17L412 38.5L410.6 46.4L410.9 55.2C410.9 55.2 413.3 55.1 414.7 52.3C416 49.8 419.7 37.5 419.7 37.5C423 27.4 422.3 22.8 420.7 20.7Z" fill="#263238"/>
<path d="M411 38.6C411.4 37.3 411.8 36.5 413.1 35.2C414.3 33.9 419.2 32.5 421.5 36.6C423.8 40.8 420 46.3 417.1 47.9C413.4 50.1 411.2 47.1 411.2 47.1L411.3 66.9C409.6 70.9 401.8 74.5 397.1 73.9C393.4 73.4 390 70.5 393.3 66.3L393 60.7C393 60.7 388.1 61.7 385.6 61.4C381.5 61 378.8 57.9 377.4 53.6C375.1 46.7 374 41 375 27.1C376.1 11.8 393.7 10.8 403.5 16.3C413.3 21.8 411 38.6 411 38.6Z" fill="#FFA8A7"/>
<path d="M369.3 11.2C368.9 7.89999 370 4.29999 373.5 3.09999C376.1 2.19999 378.8 2.29999 381.2 4.39999C382.1 2.09999 384.3 0.299994 386.8 -6.19143e-06C389.3 -0.300006 391.9 0.999994 393.2 3.09999C394.3 1.59999 395.5 0.699994 397.2 0.299994C399.2 -0.200006 401.7 0.299994 403.1 1.39999C404.5 2.49999 406.2 4.39999 405.8 6.89999C408.6 5.79999 411.5 6.69999 413.6 9.19999C414.9 10.7 415.5 12.6 415.6 14.6C415.6 15.5 415.6 16.7 415.2 17.6C414.8 18.5 414 19.1 413.7 20.1C413.5 21.1 413 22 413.2 22.9C413.4 24.6 413.8 26.3 414 27.9C414.2 29.5 414.4 31.2 414.4 32.8C414.4 33.6 413.8 34.1 413.2 34.7C412.1 35.6 411.9 36.1 411.1 37.8C410.7 38.5 410.4 40.3 409.7 40.8C407.6 42.3 407.3 37.5 407.2 36.5C407.1 35.6 407.1 33.2 407.2 30.1C406.5 30.1 403.7 30 401.5 27.5C400.8 26.7 400.2 25.4 400.1 24.4C400 23.7 399.9 23.1 399.9 22.4C398.5 24.7 395.3 25.6 393 25.4C389.1 25.1 387.8 23.4 387.2 22.2C386.9 23.3 386.4 24.7 385.7 25.5C384.7 26.5 383.4 27.1 382.2 27.5C380 28.2 377.5 27.3 375.9 25.7C374.3 28 370.4 26.9 369.5 26.3C367.5 24.8 366.9 23.1 366.6 20.6C366.4 18.1 367.4 15.3 370.1 14.3C369.8 13.5 369.5 12.4 369.3 11.2Z" fill="#263238"/>
<path d="M392.9 60.6C392.9 60.6 401.8 58.3 404.9 56.5C407 55.3 408.6 53.2 409.1 52C409.1 52 408.6 54.7 406.9 57.2C404.7 60.3 393.1 63 393.1 63L392.9 60.6Z" fill="#F28F8F"/>
<path d="M393.4 37.9C393.5 39 394.4 39.9 395.4 39.8C396.5 39.7 397.3 38.8 397.2 37.7C397.1 36.6 396.2 35.7 395.2 35.8C394.2 35.8 393.4 36.8 393.4 37.9Z" fill="#263238"/>
<path d="M390.4 52.4C390.5 53.8 391.6 54.9 393 54.9C394.4 54.8 395.4 53.6 395.4 52.2C395.3 50.8 394.2 49.7 392.8 49.7C391.4 49.7 390.4 50.9 390.4 52.4Z" fill="#F28F8F"/>
<path d="M395 31.2L399.1 33.2C399.6 32 399.1 30.6 398 30.1C396.9 29.5 395.6 30.1 395 31.2Z" fill="#263238"/>
<path d="M377.1 33L380.6 30C379.8 29 378.4 28.8 377.4 29.7C376.5 30.5 376.3 31.9 377.1 33Z" fill="#263238"/>
<path d="M378.2 37.5C378.3 38.6 379.1 39.4 380.2 39.3C381.2 39.2 382 38.3 382 37.3C381.9 36.2 381.1 35.4 380 35.5C378.9 35.5 378.1 36.4 378.2 37.5Z" fill="#263238"/>
<path d="M387.5 35.3L387.4 47.1L381.1 45.3L387.5 35.3Z" fill="#F28F8F"/>
<path d="M371.7 51.8C371.8 51.8 371.9 51.7 372 51.6C372.1 51.4 372.1 51.1 371.9 51L366.5 47.4C366.3 47.3 366 47.3 365.9 47.5C365.8 47.7 365.8 48 366 48.1L371.4 51.7C371.5 51.8 371.6 51.9 371.7 51.8Z" fill="#1F2629"/>
<path d="M371.2 54.2C371.4 54.2 371.5 54 371.6 53.9C371.7 53.7 371.5 53.4 371.3 53.3L364.9 51.8C364.7 51.7 364.4 51.9 364.3 52.1C364.2 52.3 364.4 52.6 364.6 52.7L371 54.2C371 54.2 371.1 54.2 371.2 54.2Z" fill="#1F2629"/>
<path d="M365.3 58.4L371.5 56.1C371.7 56 371.9 55.7 371.8 55.5C371.7 55.3 371.4 55.1 371.2 55.2L365.1 57.4C364.9 57.5 364.7 57.8 364.8 58C364.8 58.3 365 58.4 365.3 58.4Z" fill="#1F2629"/>
<path d="M313.4 106.4C313.6 106.7 313.8 107 314.2 107.1C315 107.4 315.8 107 316.1 106.2L320.7 94.9C321 94.1 320.6 93.3 319.8 93C319 92.7 318.2 93.1 317.9 93.9L313.3 105.2C313.2 105.6 313.2 106 313.4 106.4Z" fill="#1F2629"/>
<path d="M305.9 106.4C306.1 106.9 306.6 107.2 307.2 107.2C308 107.2 308.6 106.5 308.6 105.7L308.5 91.7C308.5 90.9 307.8 90.3 307 90.3C306.2 90.3 305.6 91 305.6 91.8L305.7 105.8C305.7 106 305.8 106.2 305.9 106.4Z" fill="#1F2629"/>
<path d="M293.1 98.5C293.1 98.6 293.2 98.6 293.2 98.7L300.1 108.7C300.5 109.4 301.4 109.5 302.1 109.1C302.8 108.7 302.9 107.7 302.5 107.1L295.6 97.1C295.2 96.4 294.3 96.3 293.6 96.7C293 97.1 292.8 97.9 293.1 98.5Z" fill="#1F2629"/>
</g>
<defs>
<clipPath id="clip0_8_2">
<rect width="470.6" height="442.9" fill="white"/>
</clipPath>
</defs>
</svg>
